<mxfile host="app.diagrams.net" agent="Mozilla/5.0 (Macintosh; Intel Mac OS X 10_15_7) AppleWebKit/537.36 (KHTML, like Gecko) Chrome/128.0.0.0 Safari/537.36 Edg/128.0.0.0" version="24.7.16">
  <diagram name="Page-1" id="4bd5d27a-524c-7e24-5d5f-89a86ee4fca1">
    <mxGraphModel dx="1220" dy="1624" grid="1" gridSize="10" guides="1" tooltips="1" connect="1" arrows="1" fold="1" page="1" pageScale="1" pageWidth="1100" pageHeight="850" background="none" math="0" shadow="0">
      <root>
        <mxCell id="0" />
        <mxCell id="1" parent="0" />
        <mxCell id="HMGfaJB-TrV0AJibgJyJ-1" value="" style="endArrow=none;html=1;rounded=0;entryX=1;entryY=0;entryDx=0;entryDy=0;" parent="1" target="HMGfaJB-TrV0AJibgJyJ-12" edge="1">
          <mxGeometry width="50" height="50" relative="1" as="geometry">
            <mxPoint x="70" y="30" as="sourcePoint" />
            <mxPoint x="560" y="30" as="targetPoint" />
          </mxGeometry>
        </mxCell>
        <mxCell id="HMGfaJB-TrV0AJibgJyJ-3" value="" style="endArrow=none;html=1;rounded=0;exitX=1;exitY=1;exitDx=0;exitDy=0;" parent="1" source="HMGfaJB-TrV0AJibgJyJ-10" edge="1">
          <mxGeometry width="50" height="50" relative="1" as="geometry">
            <mxPoint x="530" y="1000" as="sourcePoint" />
            <mxPoint x="530" y="30" as="targetPoint" />
          </mxGeometry>
        </mxCell>
        <mxCell id="HMGfaJB-TrV0AJibgJyJ-7" value="" style="endArrow=none;html=1;rounded=0;exitX=0;exitY=1;exitDx=0;exitDy=0;" parent="1" source="HMGfaJB-TrV0AJibgJyJ-14" edge="1">
          <mxGeometry width="50" height="50" relative="1" as="geometry">
            <mxPoint x="70" y="1010" as="sourcePoint" />
            <mxPoint x="70" y="30" as="targetPoint" />
          </mxGeometry>
        </mxCell>
        <mxCell id="HMGfaJB-TrV0AJibgJyJ-10" value="A 32&quot;" style="whiteSpace=wrap;html=1;aspect=fixed;fillColor=#e1d5e7;strokeColor=#9673a6;" parent="1" vertex="1">
          <mxGeometry x="210" y="670" width="320" height="320" as="geometry" />
        </mxCell>
        <mxCell id="HMGfaJB-TrV0AJibgJyJ-11" value="B 32&quot;" style="whiteSpace=wrap;html=1;aspect=fixed;fillColor=#e1d5e7;strokeColor=#9673a6;" parent="1" vertex="1">
          <mxGeometry x="210" y="350" width="320" height="320" as="geometry" />
        </mxCell>
        <mxCell id="HMGfaJB-TrV0AJibgJyJ-12" value="C 32&quot;" style="whiteSpace=wrap;html=1;aspect=fixed;fillColor=#e1d5e7;strokeColor=#9673a6;" parent="1" vertex="1">
          <mxGeometry x="210" y="30" width="320" height="320" as="geometry" />
        </mxCell>
        <mxCell id="HMGfaJB-TrV0AJibgJyJ-14" value="D1 14&quot;" style="rounded=0;whiteSpace=wrap;html=1;fillColor=#e1d5e7;strokeColor=#9673a6;" parent="1" vertex="1">
          <mxGeometry x="70" y="670" width="140" height="320" as="geometry" />
        </mxCell>
        <mxCell id="HMGfaJB-TrV0AJibgJyJ-17" value="E1 14&quot;" style="rounded=0;whiteSpace=wrap;html=1;fillColor=#e1d5e7;strokeColor=#9673a6;" parent="1" vertex="1">
          <mxGeometry x="70" y="350" width="140" height="320" as="geometry" />
        </mxCell>
        <mxCell id="HMGfaJB-TrV0AJibgJyJ-18" value="F1 14&quot;" style="rounded=0;whiteSpace=wrap;html=1;fillColor=#e1d5e7;strokeColor=#9673a6;" parent="1" vertex="1">
          <mxGeometry x="70" y="30" width="140" height="320" as="geometry" />
        </mxCell>
        <mxCell id="HMGfaJB-TrV0AJibgJyJ-19" value="" style="endArrow=none;html=1;rounded=0;entryX=-0.016;entryY=0.31;entryDx=0;entryDy=0;entryPerimeter=0;" parent="1" edge="1">
          <mxGeometry width="50" height="50" relative="1" as="geometry">
            <mxPoint x="30" y="510" as="sourcePoint" />
            <mxPoint x="30.000000000000114" y="30.000000000000156" as="targetPoint" />
          </mxGeometry>
        </mxCell>
        <mxCell id="HMGfaJB-TrV0AJibgJyJ-20" value="" style="endArrow=none;html=1;rounded=0;entryX=-0.016;entryY=0.31;entryDx=0;entryDy=0;entryPerimeter=0;" parent="1" edge="1">
          <mxGeometry width="50" height="50" relative="1" as="geometry">
            <mxPoint x="20" y="990" as="sourcePoint" />
            <mxPoint x="20.000000000000114" y="510.0000000000002" as="targetPoint" />
          </mxGeometry>
        </mxCell>
        <mxCell id="HMGfaJB-TrV0AJibgJyJ-8" value="" style="endArrow=none;html=1;rounded=0;" parent="1" edge="1">
          <mxGeometry width="50" height="50" relative="1" as="geometry">
            <mxPoint x="70" y="50" as="sourcePoint" />
            <mxPoint x="530" y="50" as="targetPoint" />
            <Array as="points">
              <mxPoint x="300" y="50" />
            </Array>
          </mxGeometry>
        </mxCell>
        <mxCell id="HMGfaJB-TrV0AJibgJyJ-24" value="94&quot;" style="text;html=1;align=center;verticalAlign=middle;resizable=0;points=[];autosize=1;strokeColor=none;fillColor=none;" parent="1" vertex="1">
          <mxGeometry x="30" y="50" width="40" height="30" as="geometry" />
        </mxCell>
        <mxCell id="HMGfaJB-TrV0AJibgJyJ-26" value="46&quot;" style="text;html=1;align=center;verticalAlign=middle;resizable=0;points=[];autosize=1;strokeColor=none;fillColor=none;" parent="1" vertex="1">
          <mxGeometry x="490" width="40" height="30" as="geometry" />
        </mxCell>
        <mxCell id="HMGfaJB-TrV0AJibgJyJ-23" value="7&quot; x 7&quot;" style="whiteSpace=wrap;html=1;aspect=fixed;" parent="1" vertex="1">
          <mxGeometry x="265" y="520" width="70" height="70" as="geometry" />
        </mxCell>
        <mxCell id="HMGfaJB-TrV0AJibgJyJ-30" value="" style="endArrow=none;dashed=1;html=1;dashPattern=1 3;strokeWidth=2;rounded=0;" parent="1" edge="1">
          <mxGeometry width="50" height="50" relative="1" as="geometry">
            <mxPoint x="30" y="590" as="sourcePoint" />
            <mxPoint x="560" y="590" as="targetPoint" />
          </mxGeometry>
        </mxCell>
        <mxCell id="HMGfaJB-TrV0AJibgJyJ-32" value="" style="endArrow=none;dashed=1;html=1;rounded=0;" parent="1" edge="1">
          <mxGeometry width="50" height="50" relative="1" as="geometry">
            <mxPoint x="35" y="170" as="sourcePoint" />
            <mxPoint x="565" y="170" as="targetPoint" />
          </mxGeometry>
        </mxCell>
        <mxCell id="HMGfaJB-TrV0AJibgJyJ-36" value="" style="endArrow=none;dashed=1;html=1;dashPattern=1 3;strokeWidth=2;rounded=0;" parent="1" edge="1">
          <mxGeometry width="50" height="50" relative="1" as="geometry">
            <mxPoint x="30" y="490" as="sourcePoint" />
            <mxPoint x="560" y="490" as="targetPoint" />
          </mxGeometry>
        </mxCell>
        <mxCell id="HMGfaJB-TrV0AJibgJyJ-37" value="" style="endArrow=none;dashed=1;html=1;dashPattern=1 3;strokeWidth=2;rounded=0;" parent="1" edge="1">
          <mxGeometry width="50" height="50" relative="1" as="geometry">
            <mxPoint x="30" y="540" as="sourcePoint" />
            <mxPoint x="560" y="540" as="targetPoint" />
          </mxGeometry>
        </mxCell>
        <mxCell id="HMGfaJB-TrV0AJibgJyJ-38" value="40&quot;" style="text;html=1;align=center;verticalAlign=middle;resizable=0;points=[];autosize=1;strokeColor=none;fillColor=none;" parent="1" vertex="1">
          <mxGeometry x="560" y="580" width="40" height="30" as="geometry" />
        </mxCell>
        <mxCell id="HMGfaJB-TrV0AJibgJyJ-39" value="45&quot;" style="text;html=1;align=center;verticalAlign=middle;resizable=0;points=[];autosize=1;strokeColor=none;fillColor=none;" parent="1" vertex="1">
          <mxGeometry x="560" y="530" width="40" height="30" as="geometry" />
        </mxCell>
        <mxCell id="HMGfaJB-TrV0AJibgJyJ-40" value="50&quot;" style="text;html=1;align=center;verticalAlign=middle;resizable=0;points=[];autosize=1;strokeColor=none;fillColor=none;" parent="1" vertex="1">
          <mxGeometry x="560" y="480" width="40" height="30" as="geometry" />
        </mxCell>
        <mxCell id="HMGfaJB-TrV0AJibgJyJ-42" value="80&quot;" style="text;html=1;align=center;verticalAlign=middle;resizable=0;points=[];autosize=1;strokeColor=none;fillColor=none;" parent="1" vertex="1">
          <mxGeometry x="560" y="160" width="40" height="30" as="geometry" />
        </mxCell>
        <mxCell id="HMGfaJB-TrV0AJibgJyJ-43" value="A" style="rounded=0;whiteSpace=wrap;html=1;fillColor=#f5f5f5;fontColor=#333333;strokeColor=#666666;" parent="1" vertex="1">
          <mxGeometry x="600" y="390" width="360" height="600" as="geometry" />
        </mxCell>
        <mxCell id="HMGfaJB-TrV0AJibgJyJ-44" value="B1&lt;div&gt;10&quot;&lt;/div&gt;" style="rounded=0;whiteSpace=wrap;html=1;fillColor=#f5f5f5;fontColor=#333333;strokeColor=#666666;" parent="1" vertex="1">
          <mxGeometry x="960" y="390" width="100" height="600" as="geometry" />
        </mxCell>
        <mxCell id="HMGfaJB-TrV0AJibgJyJ-45" value="C1&lt;div&gt;46&quot;&lt;/div&gt;" style="rounded=0;whiteSpace=wrap;html=1;fillColor=#f5f5f5;fontColor=#333333;strokeColor=#666666;direction=south;" parent="1" vertex="1">
          <mxGeometry x="600" y="30" width="460" height="360" as="geometry" />
        </mxCell>
        <mxCell id="HMGfaJB-TrV0AJibgJyJ-46" value="" style="rounded=0;whiteSpace=wrap;html=1;" parent="1" vertex="1">
          <mxGeometry x="70" y="30" width="460" height="20" as="geometry" />
        </mxCell>
        <mxCell id="HMGfaJB-TrV0AJibgJyJ-47" value="" style="endArrow=none;dashed=1;html=1;rounded=0;" parent="1" edge="1">
          <mxGeometry width="50" height="50" relative="1" as="geometry">
            <mxPoint x="299.57" y="1020" as="sourcePoint" />
            <mxPoint x="299.57" y="-10" as="targetPoint" />
          </mxGeometry>
        </mxCell>
        <mxCell id="HMGfaJB-TrV0AJibgJyJ-33" value="14&quot;x22&quot;" style="rounded=0;whiteSpace=wrap;html=1;" parent="1" vertex="1">
          <mxGeometry x="190" y="350" width="220" height="140" as="geometry" />
        </mxCell>
        <mxCell id="HMGfaJB-TrV0AJibgJyJ-25" value="" style="ellipse;whiteSpace=wrap;html=1;aspect=fixed;" parent="1" vertex="1">
          <mxGeometry x="285" y="150" width="30" height="30" as="geometry" />
        </mxCell>
        <mxCell id="HMGfaJB-TrV0AJibgJyJ-52" value="" style="endArrow=none;dashed=1;html=1;rounded=0;" parent="1" edge="1">
          <mxGeometry width="50" height="50" relative="1" as="geometry">
            <mxPoint x="190" y="1020" as="sourcePoint" />
            <mxPoint x="190" y="490" as="targetPoint" />
          </mxGeometry>
        </mxCell>
        <mxCell id="HMGfaJB-TrV0AJibgJyJ-53" value="" style="endArrow=none;dashed=1;html=1;rounded=0;" parent="1" edge="1">
          <mxGeometry width="50" height="50" relative="1" as="geometry">
            <mxPoint x="70" y="1020" as="sourcePoint" />
            <mxPoint x="70" y="490" as="targetPoint" />
          </mxGeometry>
        </mxCell>
        <mxCell id="HMGfaJB-TrV0AJibgJyJ-54" value="" style="endArrow=none;dashed=1;html=1;rounded=0;" parent="1" edge="1">
          <mxGeometry width="50" height="50" relative="1" as="geometry">
            <mxPoint x="100" y="1020" as="sourcePoint" />
            <mxPoint x="100" y="490" as="targetPoint" />
          </mxGeometry>
        </mxCell>
        <mxCell id="HMGfaJB-TrV0AJibgJyJ-55" value="" style="endArrow=none;dashed=1;html=1;rounded=0;" parent="1" edge="1">
          <mxGeometry width="50" height="50" relative="1" as="geometry">
            <mxPoint x="409.13" y="1020" as="sourcePoint" />
            <mxPoint x="409.13" y="490" as="targetPoint" />
          </mxGeometry>
        </mxCell>
        <mxCell id="HMGfaJB-TrV0AJibgJyJ-56" value="" style="endArrow=none;dashed=1;html=1;rounded=0;" parent="1" edge="1">
          <mxGeometry width="50" height="50" relative="1" as="geometry">
            <mxPoint x="529.13" y="1020" as="sourcePoint" />
            <mxPoint x="529.13" y="490" as="targetPoint" />
          </mxGeometry>
        </mxCell>
        <mxCell id="HMGfaJB-TrV0AJibgJyJ-57" value="" style="endArrow=none;dashed=1;html=1;rounded=0;" parent="1" edge="1">
          <mxGeometry width="50" height="50" relative="1" as="geometry">
            <mxPoint x="500" y="1020" as="sourcePoint" />
            <mxPoint x="500" y="490" as="targetPoint" />
          </mxGeometry>
        </mxCell>
        <mxCell id="HMGfaJB-TrV0AJibgJyJ-59" value="" style="endArrow=none;html=1;rounded=0;entryX=-0.016;entryY=0.31;entryDx=0;entryDy=0;entryPerimeter=0;" parent="1" edge="1">
          <mxGeometry width="50" height="50" relative="1" as="geometry">
            <mxPoint x="1400" y="1560" as="sourcePoint" />
            <mxPoint x="1400" y="1080.0000000000002" as="targetPoint" />
          </mxGeometry>
        </mxCell>
        <mxCell id="HMGfaJB-TrV0AJibgJyJ-60" value="" style="endArrow=none;html=1;rounded=0;entryX=-0.016;entryY=0.31;entryDx=0;entryDy=0;entryPerimeter=0;" parent="1" edge="1">
          <mxGeometry width="50" height="50" relative="1" as="geometry">
            <mxPoint x="1400" y="2040" as="sourcePoint" />
            <mxPoint x="1400" y="1560.0000000000002" as="targetPoint" />
          </mxGeometry>
        </mxCell>
        <mxCell id="HMGfaJB-TrV0AJibgJyJ-61" value="D2 18&quot;" style="rounded=0;whiteSpace=wrap;html=1;fillColor=#e1d5e7;strokeColor=#9673a6;" parent="1" vertex="1">
          <mxGeometry x="1840" y="1720" width="180" height="320" as="geometry" />
        </mxCell>
        <mxCell id="HMGfaJB-TrV0AJibgJyJ-62" value="" style="endArrow=none;html=1;rounded=0;" parent="1" edge="1">
          <mxGeometry width="50" height="50" relative="1" as="geometry">
            <mxPoint x="1400" y="1080" as="sourcePoint" />
            <mxPoint x="2020" y="1080" as="targetPoint" />
          </mxGeometry>
        </mxCell>
        <mxCell id="HMGfaJB-TrV0AJibgJyJ-63" value="" style="endArrow=none;html=1;rounded=0;entryX=-0.016;entryY=0.31;entryDx=0;entryDy=0;entryPerimeter=0;" parent="1" edge="1">
          <mxGeometry width="50" height="50" relative="1" as="geometry">
            <mxPoint x="2020" y="2040" as="sourcePoint" />
            <mxPoint x="2020" y="1080.0000000000002" as="targetPoint" />
          </mxGeometry>
        </mxCell>
        <mxCell id="HMGfaJB-TrV0AJibgJyJ-64" value="E2 18&quot;" style="rounded=0;whiteSpace=wrap;html=1;fillColor=#e1d5e7;strokeColor=#9673a6;" parent="1" vertex="1">
          <mxGeometry x="1840" y="1400" width="180" height="320" as="geometry" />
        </mxCell>
        <mxCell id="HMGfaJB-TrV0AJibgJyJ-65" value="F2 18&quot;" style="rounded=0;whiteSpace=wrap;html=1;fillColor=#e1d5e7;strokeColor=#9673a6;" parent="1" vertex="1">
          <mxGeometry x="1840" y="1080" width="180" height="320" as="geometry" />
        </mxCell>
        <mxCell id="HMGfaJB-TrV0AJibgJyJ-66" value="G" style="whiteSpace=wrap;html=1;aspect=fixed;fillColor=#e1d5e7;strokeColor=#9673a6;" parent="1" vertex="1">
          <mxGeometry x="1520" y="1720" width="320" height="320" as="geometry" />
        </mxCell>
        <mxCell id="HMGfaJB-TrV0AJibgJyJ-67" value="H" style="whiteSpace=wrap;html=1;aspect=fixed;fillColor=#e1d5e7;strokeColor=#9673a6;" parent="1" vertex="1">
          <mxGeometry x="1520" y="1400" width="320" height="320" as="geometry" />
        </mxCell>
        <mxCell id="HMGfaJB-TrV0AJibgJyJ-68" value="I 32&quot;" style="whiteSpace=wrap;html=1;aspect=fixed;fillColor=#e1d5e7;strokeColor=#9673a6;" parent="1" vertex="1">
          <mxGeometry x="1520" y="1080" width="320" height="320" as="geometry" />
        </mxCell>
        <mxCell id="HMGfaJB-TrV0AJibgJyJ-69" value="" style="rounded=0;whiteSpace=wrap;html=1;" parent="1" vertex="1">
          <mxGeometry x="800" y="1230" width="600" height="240" as="geometry" />
        </mxCell>
        <mxCell id="HMGfaJB-TrV0AJibgJyJ-71" value="J 32&quot;" style="whiteSpace=wrap;html=1;aspect=fixed;fillColor=#e1d5e7;strokeColor=#9673a6;" parent="1" vertex="1">
          <mxGeometry x="1200" y="1720" width="320" height="320" as="geometry" />
        </mxCell>
        <mxCell id="HMGfaJB-TrV0AJibgJyJ-75" value="K 32&quot;" style="whiteSpace=wrap;html=1;aspect=fixed;fillColor=#e1d5e7;strokeColor=#9673a6;" parent="1" vertex="1">
          <mxGeometry x="880" y="1720" width="320" height="320" as="geometry" />
        </mxCell>
        <mxCell id="HMGfaJB-TrV0AJibgJyJ-77" value="L2 16&quot;" style="rounded=0;whiteSpace=wrap;html=1;fillColor=#e1d5e7;strokeColor=#9673a6;" parent="1" vertex="1">
          <mxGeometry x="1200" y="1560" width="320" height="160" as="geometry" />
        </mxCell>
        <mxCell id="HMGfaJB-TrV0AJibgJyJ-78" value="L1 16&quot;" style="rounded=0;whiteSpace=wrap;html=1;fillColor=#e1d5e7;strokeColor=#9673a6;" parent="1" vertex="1">
          <mxGeometry x="880" y="1560" width="320" height="160" as="geometry" />
        </mxCell>
        <mxCell id="HMGfaJB-TrV0AJibgJyJ-79" value="N1 22&quot;" style="rounded=0;whiteSpace=wrap;html=1;fillColor=#e1d5e7;strokeColor=#9673a6;" parent="1" vertex="1">
          <mxGeometry x="660" y="1560" width="220" height="160" as="geometry" />
        </mxCell>
        <mxCell id="HMGfaJB-TrV0AJibgJyJ-72" value="" style="endArrow=none;html=1;rounded=0;entryX=-0.016;entryY=0.31;entryDx=0;entryDy=0;entryPerimeter=0;" parent="1" edge="1">
          <mxGeometry width="50" height="50" relative="1" as="geometry">
            <mxPoint x="660" y="3385" as="sourcePoint" />
            <mxPoint x="660" y="1080.0000000000002" as="targetPoint" />
          </mxGeometry>
        </mxCell>
        <mxCell id="HMGfaJB-TrV0AJibgJyJ-81" value="N2 10&quot;" style="rounded=0;whiteSpace=wrap;html=1;fillColor=#e1d5e7;strokeColor=#9673a6;" parent="1" vertex="1">
          <mxGeometry x="1420" y="1080" width="100" height="320" as="geometry" />
        </mxCell>
        <mxCell id="HMGfaJB-TrV0AJibgJyJ-82" value="M2 10&quot;" style="rounded=0;whiteSpace=wrap;html=1;fillColor=#e1d5e7;strokeColor=#9673a6;" parent="1" vertex="1">
          <mxGeometry x="1420" y="1400" width="100" height="160" as="geometry" />
        </mxCell>
        <mxCell id="HMGfaJB-TrV0AJibgJyJ-83" value="O 32&quot;" style="whiteSpace=wrap;html=1;aspect=fixed;fillColor=#e1d5e7;strokeColor=#9673a6;" parent="1" vertex="1">
          <mxGeometry x="240" y="1720" width="320" height="320" as="geometry" />
        </mxCell>
        <mxCell id="HMGfaJB-TrV0AJibgJyJ-84" value="P1 32&quot;" style="rounded=0;whiteSpace=wrap;html=1;fillColor=#e1d5e7;strokeColor=#9673a6;" parent="1" vertex="1">
          <mxGeometry x="240" y="1560" width="320" height="160" as="geometry" />
        </mxCell>
        <mxCell id="HMGfaJB-TrV0AJibgJyJ-86" value="E" style="rounded=0;whiteSpace=wrap;html=1;fillColor=#f5f5f5;fontColor=#333333;strokeColor=#666666;" parent="1" vertex="1">
          <mxGeometry x="1400" y="2500" width="360" height="600" as="geometry" />
        </mxCell>
        <mxCell id="HMGfaJB-TrV0AJibgJyJ-87" value="B2&lt;div&gt;26&quot;&lt;/div&gt;" style="rounded=0;whiteSpace=wrap;html=1;fillColor=#f5f5f5;fontColor=#333333;strokeColor=#666666;" parent="1" vertex="1">
          <mxGeometry x="1760" y="2500" width="260" height="600" as="geometry" />
        </mxCell>
        <mxCell id="HMGfaJB-TrV0AJibgJyJ-88" value="" style="endArrow=none;dashed=1;html=1;rounded=0;exitX=1.008;exitY=0.013;exitDx=0;exitDy=0;exitPerimeter=0;" parent="1" source="HMGfaJB-TrV0AJibgJyJ-44" edge="1">
          <mxGeometry width="50" height="50" relative="1" as="geometry">
            <mxPoint x="1310" y="710" as="sourcePoint" />
            <mxPoint x="1060" as="targetPoint" />
          </mxGeometry>
        </mxCell>
        <mxCell id="HMGfaJB-TrV0AJibgJyJ-89" value="D" style="rounded=0;whiteSpace=wrap;html=1;fillColor=#f5f5f5;fontColor=#333333;strokeColor=#666666;" parent="1" vertex="1">
          <mxGeometry x="1420" y="2140" width="600" height="360" as="geometry" />
        </mxCell>
        <mxCell id="HMGfaJB-TrV0AJibgJyJ-90" value="F" style="rounded=0;whiteSpace=wrap;html=1;fillColor=#f5f5f5;fontColor=#333333;strokeColor=#666666;" parent="1" vertex="1">
          <mxGeometry x="800" y="2740" width="600" height="360" as="geometry" />
        </mxCell>
        <mxCell id="HMGfaJB-TrV0AJibgJyJ-92" value="C2&lt;div&gt;14x36&lt;/div&gt;" style="rounded=0;whiteSpace=wrap;html=1;fillColor=#f5f5f5;fontColor=#333333;strokeColor=#666666;direction=south;" parent="1" vertex="1">
          <mxGeometry x="660" y="2740" width="140" height="360" as="geometry" />
        </mxCell>
        <mxCell id="HMGfaJB-TrV0AJibgJyJ-93" value="G1&lt;div&gt;12&quot;&lt;/div&gt;" style="rounded=0;whiteSpace=wrap;html=1;fillColor=#f5f5f5;fontColor=#333333;strokeColor=#666666;direction=south;" parent="1" vertex="1">
          <mxGeometry x="800" y="2620" width="600" height="120" as="geometry" />
        </mxCell>
        <mxCell id="HMGfaJB-TrV0AJibgJyJ-94" value="G2&lt;div&gt;24&quot; x 46&quot;&lt;/div&gt;" style="rounded=0;whiteSpace=wrap;html=1;fillColor=#f5f5f5;fontColor=#333333;strokeColor=#666666;" parent="1" vertex="1">
          <mxGeometry x="200" y="2860" width="460" height="240" as="geometry" />
        </mxCell>
        <mxCell id="HMGfaJB-TrV0AJibgJyJ-96" value="H1&lt;div&gt;24&quot; x 46&quot;&lt;/div&gt;" style="rounded=0;whiteSpace=wrap;html=1;fillColor=#f5f5f5;fontColor=#333333;strokeColor=#666666;" parent="1" vertex="1">
          <mxGeometry x="200" y="2620" width="460" height="240" as="geometry" />
        </mxCell>
        <mxCell id="HMGfaJB-TrV0AJibgJyJ-98" value="G3&lt;div&gt;12&quot; x 14&quot;&lt;/div&gt;" style="rounded=0;whiteSpace=wrap;html=1;fillColor=#f5f5f5;fontColor=#333333;strokeColor=#666666;" parent="1" vertex="1">
          <mxGeometry x="660" y="2620" width="140" height="120" as="geometry" />
        </mxCell>
        <mxCell id="zjkaEpU6dWGREXZC1Co--1" value="M1 22&quot;" style="rounded=0;whiteSpace=wrap;html=1;fillColor=#e1d5e7;strokeColor=#9673a6;" vertex="1" parent="1">
          <mxGeometry x="660" y="1720" width="220" height="320" as="geometry" />
        </mxCell>
        <mxCell id="zjkaEpU6dWGREXZC1Co--2" value="10&quot;" style="rounded=0;whiteSpace=wrap;html=1;fillColor=#e1d5e7;strokeColor=#9673a6;" vertex="1" parent="1">
          <mxGeometry x="560" y="1720" width="100" height="320" as="geometry" />
        </mxCell>
        <mxCell id="zjkaEpU6dWGREXZC1Co--3" value="10&quot;" style="rounded=0;whiteSpace=wrap;html=1;fillColor=#e1d5e7;strokeColor=#9673a6;" vertex="1" parent="1">
          <mxGeometry x="560" y="1560" width="100" height="160" as="geometry" />
        </mxCell>
      </root>
    </mxGraphModel>
  </diagram>
</mxfile>
